<svg width="17" height="14" viewBox="0 0 17 14" fill="none" xmlns="http://www.w3.org/2000/svg">
<path d="M5.40772 6.87924C7.30772 6.87924 8.76925 5.4177 8.76925 3.5177C8.76925 1.6177 7.30772 0.0100098 5.40772 0.0100098C3.50772 0.0100098 1.90002 1.6177 1.90002 3.5177C1.90002 5.4177 3.50772 6.87924 5.40772 6.87924ZM5.40772 0.740779C6.86926 0.740779 8.18464 1.91001 8.18464 3.5177C8.18464 4.97924 7.01541 6.29463 5.40772 6.29463C3.94618 6.29463 2.63079 5.12539 2.63079 3.5177C2.63079 1.91001 3.80002 0.740779 5.40772 0.740779Z" fill="#22252F"/>
<path d="M11.6923 6.14854C10.8154 6.29469 9.93848 5.85623 9.35387 5.12546L8.91541 5.56392C9.64617 6.44085 10.5231 6.87931 11.5462 6.87931C11.6923 6.87931 11.6923 6.87931 11.8385 6.87931C12.7154 6.73315 13.5923 6.44085 14.1769 5.71008C14.7616 4.97931 15.0539 4.10239 14.9077 3.22546C14.7616 1.32546 13.1539 -0.136076 11.2539 0.0100777C10.3769 0.156232 9.50002 0.594693 8.91541 1.32546L9.50002 1.76392C9.93848 1.17931 10.6693 0.887001 11.4 0.740847C12.8616 0.594693 14.1769 1.76392 14.3231 3.22546C14.3231 3.95623 14.1769 4.687 13.7385 5.27162C13.1539 5.71008 12.4231 6.14854 11.6923 6.14854Z" fill="#22252F"/>
<path d="M11.8385 7.90234C10.9615 7.90234 10.0846 8.0485 9.35385 8.48696L9.64615 9.07157C10.3769 8.77927 11.1077 8.63311 11.8385 8.63311C14.3231 8.63311 16.3692 10.6793 16.3692 13.31C16.3692 13.31 16.3692 13.31 16.3692 13.4562H10.5231C10.5231 13.4562 10.5231 13.4562 10.5231 13.31C10.5231 10.387 8.18462 7.90234 5.11538 7.90234C2.33846 7.90234 0 10.2408 0 13.1639C0 13.31 0 13.31 0 13.4562V13.8947H6.86923H10.5231H16.9538V13.4562C16.9538 13.31 16.9538 13.1639 16.9538 13.1639C17.2462 10.2408 14.7615 7.90234 11.8385 7.90234ZM6.86923 13.31H0.730769C0.730769 13.31 0.730769 13.31 0.730769 13.1639C0.730769 10.6793 2.77692 8.48696 5.40769 8.48696C8.03846 8.48696 9.93846 10.6793 9.93846 13.1639C9.93846 13.1639 9.93846 13.1639 9.93846 13.31H6.86923Z" fill="#22252F"/>
</svg>
